<svg width="125" height="125" viewBox="0 0 125 125" fill="none" xmlns="http://www.w3.org/2000/svg">
<path d="M28.5 121C25.45 121 22.5249 119.778 20.3683 117.602C18.2116 115.427 17 112.477 17 109.4V16.6C17 13.5235 18.2116 10.573 20.3683 8.39758C22.5249 6.22216 25.45 5.00002 28.5 5.00002H74.5C76.3202 4.99704 78.123 5.35731 79.8045 6.06008C81.4861 6.76284 83.0132 7.79422 84.298 9.09482L104.929 29.9052C106.222 31.2016 107.247 32.7434 107.946 34.4418C108.645 36.1401 109.003 37.9612 109 39.8V109.4C109 112.477 107.788 115.427 105.632 117.602C103.475 119.778 100.55 121 97.5 121H28.5Z" fill="white" stroke="#1347E6" stroke-width="7" stroke-linecap="round" stroke-linejoin="round"/>
<path d="M75 5V33.3333C75 34.8362 75.597 36.2776 76.6597 37.3403C77.7224 38.403 79.1638 39 80.6667 39H109" stroke="#1347E6" stroke-width="7" stroke-linecap="round" stroke-linejoin="round"/>
<path d="M64.1797 50.6641C65.7878 50.6641 67.2435 50.9688 68.5469 51.5781C69.8672 52.1706 70.9928 52.9492 71.9238 53.9141C72.8717 54.862 73.5996 55.9284 74.1074 57.1133C74.6152 58.2982 74.8691 59.4831 74.8691 60.668C74.8691 61.7174 74.5475 62.7754 73.9043 63.8418C73.2611 64.8913 72.3555 65.8392 71.1875 66.6855C70.0365 67.5319 68.6484 68.2174 67.0234 68.7422C65.3984 69.2669 63.6126 69.5293 61.666 69.5293C60.6504 69.5293 59.584 69.4277 58.4668 69.2246C58.5345 69.9525 58.7461 70.5788 59.1016 71.1035C59.457 71.6283 59.9056 72.0599 60.4473 72.3984C60.9889 72.737 61.5983 72.9909 62.2754 73.1602C62.9694 73.3125 63.6803 73.3887 64.4082 73.3887C65.2207 73.3887 65.9993 73.321 66.7441 73.1855C67.5059 73.0332 68.2337 72.8385 68.9277 72.6016C69.6217 72.3646 70.2904 72.1022 70.9336 71.8145C71.5768 71.5267 72.1862 71.2389 72.7617 70.9512C72.9141 70.9173 73.041 70.8919 73.1426 70.875C73.2611 70.8411 73.3711 70.8242 73.4727 70.8242C73.4727 70.8242 73.4642 70.9596 73.4473 71.2305C73.4473 71.5013 73.4473 71.8822 73.4473 72.373C73.4473 72.8639 73.4388 73.4564 73.4219 74.1504C73.4219 74.8444 73.4134 75.6146 73.3965 76.4609C73.4473 76.5456 73.4811 76.6302 73.498 76.7148C73.515 76.7995 73.5234 76.8672 73.5234 76.918C73.5234 77.1211 73.3372 77.3411 72.9648 77.5781C72.5924 77.8151 72.1016 78.0605 71.4922 78.3145C70.8997 78.5684 70.2142 78.8138 69.4355 79.0508C68.6738 79.2878 67.8952 79.4993 67.0996 79.6855C66.304 79.8887 65.5339 80.041 64.7891 80.1426C64.0443 80.2611 63.3926 80.3203 62.834 80.3203C61.0059 80.3203 59.2285 79.9987 57.502 79.3555C55.7923 78.7292 54.2689 77.8236 52.9316 76.6387C51.6113 75.4538 50.5534 74.015 49.7578 72.3223C48.9622 70.6296 48.5645 68.7253 48.5645 66.6094C48.5645 64.3919 48.9453 62.3184 49.707 60.3887C50.4688 58.4421 51.5352 56.7493 52.9062 55.3105C54.2943 53.8717 55.9447 52.7376 57.8574 51.9082C59.7702 51.0788 61.8776 50.6641 64.1797 50.6641ZM63.875 57.418C63.181 57.418 62.5378 57.5703 61.9453 57.875C61.3698 58.1628 60.8366 58.5859 60.3457 59.1445C59.8717 59.6862 59.457 60.3464 59.1016 61.125C58.7461 61.8867 58.4583 62.7331 58.2383 63.6641C59.9818 63.3594 61.429 63.0378 62.5801 62.6992C63.7311 62.3607 64.6536 62.0221 65.3477 61.6836C66.0417 61.3281 66.5326 60.9811 66.8203 60.6426C67.1081 60.2871 67.252 59.9486 67.252 59.627C67.252 59.3223 67.1335 59.0345 66.8965 58.7637C66.6764 58.4928 66.3971 58.2559 66.0586 58.0527C65.7201 57.8496 65.3477 57.6973 64.9414 57.5957C64.5521 57.4772 64.1966 57.418 63.875 57.418Z" fill="#1347E6"/>
</svg>
